<mxfile host="app.diagrams.net" agent="Mozilla/5.0 (Windows NT 10.0; Win64; x64) AppleWebKit/537.36 (KHTML, like Gecko) Chrome/139.0.0.0 Safari/537.36" version="28.1.0">
  <diagram name="Page-1" id="k_kFskfEw7Nd8BAmwSeA">
    <mxGraphModel dx="1042" dy="1618" grid="1" gridSize="10" guides="1" tooltips="1" connect="1" arrows="1" fold="1" page="1" pageScale="1" pageWidth="850" pageHeight="1100" background="#ffffff" math="0" shadow="0">
      <root>
        <mxCell id="0" />
        <mxCell id="1" parent="0" />
        <mxCell id="9Ki3CJH-6ZAXd2fhacaG-21" value="" style="rounded=1;whiteSpace=wrap;html=1;" vertex="1" parent="1">
          <mxGeometry x="320" y="195.25" width="60" height="55" as="geometry" />
        </mxCell>
        <mxCell id="9Ki3CJH-6ZAXd2fhacaG-1" value="AWS Cloud" style="points=[[0,0],[0.25,0],[0.5,0],[0.75,0],[1,0],[1,0.25],[1,0.5],[1,0.75],[1,1],[0.75,1],[0.5,1],[0.25,1],[0,1],[0,0.75],[0,0.5],[0,0.25]];outlineConnect=0;gradientColor=none;html=1;whiteSpace=wrap;fontSize=12;fontStyle=0;container=1;pointerEvents=0;collapsible=0;recursiveResize=0;shape=mxgraph.aws4.group;grIcon=mxgraph.aws4.group_aws_cloud_alt;strokeColor=#232F3E;fillColor=none;verticalAlign=top;align=left;spacingLeft=30;fontColor=#232F3E;dashed=0;" vertex="1" parent="1">
          <mxGeometry x="40" y="-40" width="600" height="500" as="geometry" />
        </mxCell>
        <mxCell id="9Ki3CJH-6ZAXd2fhacaG-3" value="Availability Zone A" style="fillColor=none;strokeColor=#147EBA;dashed=1;verticalAlign=top;fontStyle=0;fontColor=#147EBA;whiteSpace=wrap;html=1;" vertex="1" parent="9Ki3CJH-6ZAXd2fhacaG-1">
          <mxGeometry x="40" y="40" width="360" height="120" as="geometry" />
        </mxCell>
        <mxCell id="9Ki3CJH-6ZAXd2fhacaG-7" value="Web Server 1" style="sketch=0;points=[[0,0,0],[0.25,0,0],[0.5,0,0],[0.75,0,0],[1,0,0],[0,1,0],[0.25,1,0],[0.5,1,0],[0.75,1,0],[1,1,0],[0,0.25,0],[0,0.5,0],[0,0.75,0],[1,0.25,0],[1,0.5,0],[1,0.75,0]];outlineConnect=0;fontColor=#232F3E;fillColor=#ED7100;strokeColor=#ffffff;dashed=0;verticalLabelPosition=bottom;verticalAlign=top;align=center;html=1;fontSize=12;fontStyle=0;aspect=fixed;shape=mxgraph.aws4.resourceIcon;resIcon=mxgraph.aws4.compute;" vertex="1" parent="9Ki3CJH-6ZAXd2fhacaG-1">
          <mxGeometry x="81" y="75" width="50" height="50" as="geometry" />
        </mxCell>
        <mxCell id="9Ki3CJH-6ZAXd2fhacaG-10" value="" style="rounded=1;whiteSpace=wrap;html=1;" vertex="1" parent="9Ki3CJH-6ZAXd2fhacaG-1">
          <mxGeometry x="280" y="75" width="60" height="55" as="geometry" />
        </mxCell>
        <mxCell id="9Ki3CJH-6ZAXd2fhacaG-9" value="`EFS mount target" style="sketch=0;outlineConnect=0;fontColor=#232F3E;gradientColor=none;fillColor=#8C4FFF;strokeColor=none;dashed=0;verticalLabelPosition=bottom;verticalAlign=top;align=center;html=1;fontSize=12;fontStyle=0;aspect=fixed;pointerEvents=1;shape=mxgraph.aws4.endpoints;" vertex="1" parent="9Ki3CJH-6ZAXd2fhacaG-1">
          <mxGeometry x="285" y="78.5" width="46.5" height="46.5" as="geometry" />
        </mxCell>
        <mxCell id="9Ki3CJH-6ZAXd2fhacaG-12" value="" style="edgeStyle=orthogonalEdgeStyle;html=1;endArrow=block;elbow=vertical;startArrow=none;endFill=1;strokeColor=#545B64;rounded=0;entryX=0;entryY=0.5;entryDx=0;entryDy=0;" edge="1" parent="9Ki3CJH-6ZAXd2fhacaG-1">
          <mxGeometry width="100" relative="1" as="geometry">
            <mxPoint x="135" y="103" as="sourcePoint" />
            <mxPoint x="275" y="102.5" as="targetPoint" />
          </mxGeometry>
        </mxCell>
        <mxCell id="9Ki3CJH-6ZAXd2fhacaG-27" value="" style="edgeStyle=orthogonalEdgeStyle;html=1;endArrow=openThin;elbow=vertical;startArrow=none;endFill=0;strokeColor=#545B64;rounded=0;" edge="1" parent="9Ki3CJH-6ZAXd2fhacaG-1" target="9Ki3CJH-6ZAXd2fhacaG-8">
          <mxGeometry width="100" relative="1" as="geometry">
            <mxPoint x="344" y="101" as="sourcePoint" />
            <mxPoint x="444" y="101" as="targetPoint" />
          </mxGeometry>
        </mxCell>
        <mxCell id="9Ki3CJH-6ZAXd2fhacaG-5" value="Availability Zone B" style="fillColor=none;strokeColor=#147EBA;dashed=1;verticalAlign=top;fontStyle=0;fontColor=#147EBA;whiteSpace=wrap;html=1;" vertex="1" parent="1">
          <mxGeometry x="80" y="160" width="360" height="120" as="geometry" />
        </mxCell>
        <mxCell id="9Ki3CJH-6ZAXd2fhacaG-6" value="Availability Zone C" style="fillColor=none;strokeColor=#147EBA;dashed=1;verticalAlign=top;fontStyle=0;fontColor=#147EBA;whiteSpace=wrap;html=1;" vertex="1" parent="1">
          <mxGeometry x="80" y="319" width="360" height="120" as="geometry" />
        </mxCell>
        <mxCell id="9Ki3CJH-6ZAXd2fhacaG-8" value="" style="sketch=0;points=[[0,0,0],[0.25,0,0],[0.5,0,0],[0.75,0,0],[1,0,0],[0,1,0],[0.25,1,0],[0.5,1,0],[0.75,1,0],[1,1,0],[0,0.25,0],[0,0.5,0],[0,0.75,0],[1,0.25,0],[1,0.5,0],[1,0.75,0]];outlineConnect=0;fontColor=#232F3E;fillColor=#7AA116;strokeColor=#ffffff;dashed=0;verticalLabelPosition=bottom;verticalAlign=top;align=center;html=1;fontSize=12;fontStyle=0;aspect=fixed;shape=mxgraph.aws4.resourceIcon;resIcon=mxgraph.aws4.elastic_file_system;" vertex="1" parent="1">
          <mxGeometry x="507" y="177" width="78" height="78" as="geometry" />
        </mxCell>
        <mxCell id="9Ki3CJH-6ZAXd2fhacaG-17" value="Amazon EFS" style="text;html=1;align=center;verticalAlign=middle;resizable=0;points=[];autosize=1;strokeColor=none;fillColor=none;" vertex="1" parent="1">
          <mxGeometry x="504" y="252" width="90" height="30" as="geometry" />
        </mxCell>
        <mxCell id="9Ki3CJH-6ZAXd2fhacaG-18" value="Web Server 2" style="sketch=0;points=[[0,0,0],[0.25,0,0],[0.5,0,0],[0.75,0,0],[1,0,0],[0,1,0],[0.25,1,0],[0.5,1,0],[0.75,1,0],[1,1,0],[0,0.25,0],[0,0.5,0],[0,0.75,0],[1,0.25,0],[1,0.5,0],[1,0.75,0]];outlineConnect=0;fontColor=#232F3E;fillColor=#ED7100;strokeColor=#ffffff;dashed=0;verticalLabelPosition=bottom;verticalAlign=top;align=center;html=1;fontSize=12;fontStyle=0;aspect=fixed;shape=mxgraph.aws4.resourceIcon;resIcon=mxgraph.aws4.compute;" vertex="1" parent="1">
          <mxGeometry x="120" y="195" width="50" height="50" as="geometry" />
        </mxCell>
        <mxCell id="9Ki3CJH-6ZAXd2fhacaG-19" value="`EFS mount target" style="sketch=0;outlineConnect=0;fontColor=#232F3E;gradientColor=none;fillColor=#8C4FFF;strokeColor=none;dashed=0;verticalLabelPosition=bottom;verticalAlign=top;align=center;html=1;fontSize=12;fontStyle=0;aspect=fixed;pointerEvents=1;shape=mxgraph.aws4.endpoints;" vertex="1" parent="1">
          <mxGeometry x="324" y="198.5" width="46.5" height="46.5" as="geometry" />
        </mxCell>
        <mxCell id="9Ki3CJH-6ZAXd2fhacaG-20" value="" style="edgeStyle=orthogonalEdgeStyle;html=1;endArrow=block;elbow=vertical;startArrow=none;endFill=1;strokeColor=#545B64;rounded=0;entryX=0;entryY=0.5;entryDx=0;entryDy=0;" edge="1" parent="1">
          <mxGeometry width="100" relative="1" as="geometry">
            <mxPoint x="174" y="223" as="sourcePoint" />
            <mxPoint x="314" y="222.5" as="targetPoint" />
          </mxGeometry>
        </mxCell>
        <mxCell id="9Ki3CJH-6ZAXd2fhacaG-22" value="Web Server 3" style="sketch=0;points=[[0,0,0],[0.25,0,0],[0.5,0,0],[0.75,0,0],[1,0,0],[0,1,0],[0.25,1,0],[0.5,1,0],[0.75,1,0],[1,1,0],[0,0.25,0],[0,0.5,0],[0,0.75,0],[1,0.25,0],[1,0.5,0],[1,0.75,0]];outlineConnect=0;fontColor=#232F3E;fillColor=#ED7100;strokeColor=#ffffff;dashed=0;verticalLabelPosition=bottom;verticalAlign=top;align=center;html=1;fontSize=12;fontStyle=0;aspect=fixed;shape=mxgraph.aws4.resourceIcon;resIcon=mxgraph.aws4.compute;" vertex="1" parent="1">
          <mxGeometry x="120" y="354" width="50" height="50" as="geometry" />
        </mxCell>
        <mxCell id="9Ki3CJH-6ZAXd2fhacaG-25" value="" style="rounded=1;whiteSpace=wrap;html=1;" vertex="1" parent="1">
          <mxGeometry x="319.25" y="353.5" width="60" height="55" as="geometry" />
        </mxCell>
        <mxCell id="9Ki3CJH-6ZAXd2fhacaG-23" value="`EFS mount target" style="sketch=0;outlineConnect=0;fontColor=#232F3E;gradientColor=none;fillColor=#8C4FFF;strokeColor=none;dashed=0;verticalLabelPosition=bottom;verticalAlign=top;align=center;html=1;fontSize=12;fontStyle=0;aspect=fixed;pointerEvents=1;shape=mxgraph.aws4.endpoints;" vertex="1" parent="1">
          <mxGeometry x="324" y="357.5" width="46.5" height="46.5" as="geometry" />
        </mxCell>
        <mxCell id="9Ki3CJH-6ZAXd2fhacaG-24" value="" style="edgeStyle=orthogonalEdgeStyle;html=1;endArrow=block;elbow=vertical;startArrow=none;endFill=1;strokeColor=#545B64;rounded=0;entryX=0;entryY=0.5;entryDx=0;entryDy=0;" edge="1" parent="1">
          <mxGeometry width="100" relative="1" as="geometry">
            <mxPoint x="174" y="382" as="sourcePoint" />
            <mxPoint x="314" y="381.5" as="targetPoint" />
          </mxGeometry>
        </mxCell>
        <mxCell id="9Ki3CJH-6ZAXd2fhacaG-29" value="" style="edgeStyle=orthogonalEdgeStyle;html=1;endArrow=openThin;elbow=vertical;startArrow=none;endFill=0;strokeColor=#545B64;rounded=0;" edge="1" parent="1">
          <mxGeometry width="100" relative="1" as="geometry">
            <mxPoint x="388" y="220" as="sourcePoint" />
            <mxPoint x="501" y="221" as="targetPoint" />
          </mxGeometry>
        </mxCell>
        <mxCell id="9Ki3CJH-6ZAXd2fhacaG-31" value="" style="edgeStyle=orthogonalEdgeStyle;html=1;endArrow=openThin;elbow=vertical;startArrow=none;endFill=0;strokeColor=#545B64;rounded=0;" edge="1" parent="1" target="9Ki3CJH-6ZAXd2fhacaG-17">
          <mxGeometry width="100" relative="1" as="geometry">
            <mxPoint x="383" y="379" as="sourcePoint" />
            <mxPoint x="483" y="379" as="targetPoint" />
          </mxGeometry>
        </mxCell>
        <mxCell id="9Ki3CJH-6ZAXd2fhacaG-32" value="" style="sketch=0;outlineConnect=0;fontColor=#232F3E;gradientColor=none;fillColor=#232F3D;strokeColor=none;dashed=0;verticalLabelPosition=bottom;verticalAlign=top;align=center;html=1;fontSize=12;fontStyle=0;aspect=fixed;pointerEvents=1;shape=mxgraph.aws4.documents;" vertex="1" parent="1">
          <mxGeometry x="743" y="180.5" width="51.69" height="63" as="geometry" />
        </mxCell>
        <mxCell id="9Ki3CJH-6ZAXd2fhacaG-33" value="" style="edgeStyle=orthogonalEdgeStyle;html=1;endArrow=openThin;elbow=vertical;startArrow=none;endFill=0;strokeColor=#545B64;rounded=0;verticalAlign=middle;horizontal=1;" edge="1" parent="1">
          <mxGeometry width="100" relative="1" as="geometry">
            <mxPoint x="588" y="216.5" as="sourcePoint" />
            <mxPoint x="740" y="217" as="targetPoint" />
            <Array as="points">
              <mxPoint x="739" y="217" />
            </Array>
          </mxGeometry>
        </mxCell>
        <mxCell id="9Ki3CJH-6ZAXd2fhacaG-34" value="Data / document.log" style="text;html=1;align=center;verticalAlign=middle;resizable=0;points=[];autosize=1;strokeColor=none;fillColor=none;" vertex="1" parent="1">
          <mxGeometry x="725" y="248" width="130" height="30" as="geometry" />
        </mxCell>
      </root>
    </mxGraphModel>
  </diagram>
</mxfile>
